<?xml version="1.0" encoding="UTF-8" standalone="no"?>
<!-- Created with Inkscape (http://www.inkscape.org/) -->

<svg
   width="40mm"
   height="39.999996mm"
   viewBox="0 0 40 39.999996"
   version="1.1"
   id="svg1"
   xml:space="preserve"
   xmlns="http://www.w3.org/2000/svg"
   xmlns:svg="http://www.w3.org/2000/svg"><defs
     id="defs1" /><g
     id="layer1"
     transform="translate(-54.086873,-133.01932)"><g
       id="g2"><path
         id="rect1"
         style="opacity:1;fill-rule:evenodd;stroke-width:9.871"
         d="m 64.529737,133.0193 h 19.114278 c 5.785345,0 10.442861,4.65752 10.442861,10.44286 v 19.11428 c 0,5.78535 -4.657516,10.44286 -10.442861,10.44286 H 64.529737 c -5.785345,0 -10.442861,-4.65751 -10.442861,-10.44286 v -19.11428 c 0,-5.78534 4.657516,-10.44286 10.442861,-10.44286 z" /><path
         style="font-weight:600;font-size:22.5778px;line-height:50.6px;font-family:inter;-inkscape-font-specification:'inter Semi-Bold';opacity:1;fill:#3c5160;fill-opacity:1;stroke-width:9.871"
         d="m 63.349192,144.80619 v 16.42623 h -2.91042 v -16.42623 z m 5.379866,9.84472 v 6.58151 h -2.778127 v -11.64167 h 2.73403 v 2.96554 H 68.14477 c 0.374827,-1.04364 0.900319,-1.83739 1.576477,-2.38126 0.683507,-0.54386 1.528705,-0.8158 2.535593,-0.8158 0.815799,0 1.536055,0.17639 2.160766,0.52917 0.624711,0.34543 1.113456,0.8599 1.466234,1.54341 0.352778,0.6835 0.529167,1.52503 0.529167,2.52457 v 7.27604 h -2.789152 v -6.83507 c 0,-0.85255 -0.205787,-1.49931 -0.617362,-1.94028 -0.404225,-0.44098 -0.981164,-0.66146 -1.730817,-0.66146 -0.48507,0 -0.918693,0.0992 -1.30087,0.29766 -0.382176,0.19843 -0.687182,0.50711 -0.915018,0.92604 -0.220487,0.41892 -0.33073,0.96279 -0.33073,1.6316 z m 15.301753,-5.06016 v 2.23793 h -4.608167 v -2.23793 z m -5.15938,11.64167 V 147.893 c 0,-0.66881 0.135967,-1.23105 0.4079,-1.68672 0.271933,-0.46302 0.668808,-0.81212 1.190626,-1.04731 0.529167,-0.23518 1.175927,-0.35278 1.94028,-0.35278 h 0.981164 4.343579 v 2.23794 h -4.189239 -0.584288 c -0.470371,0 -0.804776,0.0992 -1.003213,0.29766 -0.198438,0.19843 -0.297657,0.53651 -0.297657,1.01423 v 12.8764 z"
         id="text2"
         aria-label="Inferflow" /></g></g></svg>
